<?xml version="1.0" encoding="UTF-8" standalone="no"?>
<!DOCTYPE svg PUBLIC "-//W3C//DTD SVG 1.1//EN" "http://www.w3.org/Graphics/SVG/1.1/DTD/svg11.dtd">
<svg width="100%" height="100%" viewBox="0 0 608 587" version="1.1" xmlns="http://www.w3.org/2000/svg" xmlns:xlink="http://www.w3.org/1999/xlink" xml:space="preserve" xmlns:serif="http://www.serif.com/" style="fill-rule:evenodd;clip-rule:evenodd;stroke-linejoin:round;stroke-miterlimit:2;">
    <g transform="matrix(1,0,0,1,-236.422708,-246.647708)">
        <g>
            <g transform="matrix(-0.998718,4.045204,4.045204,0.998718,648.63301,623.585144)">
                <path d="M-72.443,-83.998L72.514,-83.998L65.82,-56.888L-79.175,-56.733L-72.443,-83.998Z" style="fill:rgb(0,112,156);fill-rule:nonzero;"/>
            </g>
            <g transform="matrix(0.882544,4.072128,4.072128,-0.882544,702.701608,437.909743)">
                <path d="M-29.97,-49.482L86.322,-49.482C78.048,-45.386 69.773,-41.289 61.498,-37.193C22.677,-37.227 -16.145,-37.261 -54.967,-37.295C-46.635,-41.357 -38.303,-45.419 -29.97,-49.482" style="fill:rgb(0,112,156);fill-rule:nonzero;"/>
            </g>
            <g transform="matrix(-0.998618,4.045228,4.045228,0.998618,994.03251,623.879824)">
                <path d="M-72.451,-84.006L72.521,-84.006L65.828,-56.896L-79.182,-56.74L-72.451,-84.006Z" style="fill:rgb(0,112,156);fill-rule:nonzero;"/>
            </g>
        </g>
    </g>
</svg>
